<svg width="32" height="31" viewBox="0 0 32 31" fill="none" xmlns="http://www.w3.org/2000/svg">
<g id="carbon:logo-discord">
<path id="Vector" d="M13.647 14.2939C13.3565 14.2709 13.0653 14.3306 12.8116 14.4653C12.5578 14.6 12.3534 14.8034 12.225 15.0488C12.0966 15.2942 12.0502 15.5703 12.0919 15.8408C12.1337 16.1114 12.2615 16.3638 12.4588 16.5651C12.6561 16.7664 12.9136 16.9071 13.1977 16.9689C13.4817 17.0307 13.779 17.0107 14.0507 16.9114C14.3224 16.8122 14.5558 16.6384 14.7204 16.4127C14.8849 16.187 14.973 15.9201 14.973 15.6467C14.9808 15.4762 14.9527 15.306 14.8902 15.1457C14.8278 14.9854 14.7323 14.8383 14.6091 14.7126C14.486 14.587 14.3376 14.4854 14.1725 14.4135C14.0074 14.3416 13.8289 14.301 13.647 14.2939ZM18.392 14.2939C18.1015 14.2709 17.8103 14.3306 17.5566 14.4653C17.3028 14.6 17.0984 14.8034 16.97 15.0488C16.8416 15.2942 16.7952 15.5703 16.8369 15.8408C16.8787 16.1114 17.0065 16.3638 17.2038 16.5651C17.4011 16.7664 17.6586 16.9071 17.9427 16.9689C18.2267 17.0307 18.524 17.0107 18.7957 16.9114C19.0674 16.8122 19.3008 16.6384 19.4654 16.4127C19.6299 16.187 19.718 15.9201 19.718 15.6467C19.7258 15.4762 19.6977 15.306 19.6352 15.1457C19.5728 14.9854 19.4773 14.8383 19.3541 14.7126C19.231 14.587 19.0826 14.4854 18.9175 14.4135C18.7524 14.3416 18.5739 14.301 18.392 14.2939Z" fill="#858585"/>
<path id="Vector_2" d="M24.71 4.0686H7.29001C6.93916 4.06934 6.59191 4.13487 6.26809 4.26145C5.94426 4.38804 5.65021 4.57319 5.40273 4.80633C5.15525 5.03948 4.95918 5.31605 4.82574 5.62025C4.6923 5.92445 4.62409 6.25031 4.62501 6.57923V23.0567C4.62409 23.3856 4.6923 23.7115 4.82574 24.0157C4.95918 24.3199 5.15525 24.5965 5.40273 24.8296C5.65021 25.0628 5.94426 25.2479 6.26809 25.3745C6.59191 25.5011 6.93916 25.5666 7.29001 25.5674H22.032L21.343 23.3127L23.007 24.763L24.58 26.128L27.375 28.4436V6.57923C27.3759 6.25031 27.3077 5.92445 27.1743 5.62025C27.0408 5.31605 26.8448 5.03948 26.5973 4.80633C26.3498 4.57319 26.0558 4.38804 25.7319 4.26145C25.4081 4.13487 25.0609 4.06934 24.71 4.0686ZM19.692 19.9855C19.692 19.9855 19.224 19.4614 18.834 18.9983C19.7763 18.7903 20.6098 18.2766 21.187 17.548C20.7192 17.8398 20.2177 18.081 19.692 18.267C19.0872 18.5091 18.4547 18.6849 17.807 18.7911C16.6936 18.9833 15.5518 18.9791 14.44 18.7789C13.7873 18.6592 13.1476 18.4838 12.529 18.2549C12.2029 18.1373 11.8858 17.9988 11.58 17.8405C11.541 17.8161 11.502 17.8039 11.463 17.7795C11.4435 17.7704 11.4258 17.758 11.411 17.743C11.2863 17.6793 11.1648 17.6101 11.047 17.5358C11.6033 18.2491 12.408 18.7578 13.322 18.9739C12.932 19.437 12.451 19.9855 12.451 19.9855C11.6788 20.005 10.9133 19.8462 10.2219 19.5232C9.53046 19.2002 8.93435 18.7228 8.48601 18.133C8.52821 15.6622 9.16831 13.2327 10.358 11.0277C11.405 10.2568 12.6814 9.80962 14.011 9.74798L14.141 9.89423C12.8901 10.1845 11.7227 10.7296 10.722 11.4908C10.722 11.4908 11.008 11.3445 11.489 11.1374C12.4235 10.7375 13.4194 10.4783 14.44 10.3695C14.5128 10.3554 14.5867 10.3473 14.661 10.3452C15.5322 10.2388 16.4138 10.2306 17.287 10.3208C18.6603 10.4678 19.9895 10.8653 21.2 11.4908C20.25 10.7659 19.1467 10.2383 17.963 9.94298L18.145 9.74798C19.4746 9.80962 20.7511 10.2568 21.798 11.0277C22.9877 13.2327 23.6278 15.6622 23.67 18.133C23.218 18.7222 22.6194 19.1989 21.9261 19.5218C21.2328 19.8446 20.4659 20.0038 19.692 19.9855Z" fill="#858585"/>
</g>
</svg>
