<svg width="14" height="16" viewBox="0 0 14 16" fill="none" xmlns="http://www.w3.org/2000/svg">
<g id="apple 1" clip-path="url(#clip0_6_3334)">
<path id="Vector" d="M7.53348 1.52882C8.55093 0.197956 9.96544 0.191467 9.96544 0.191467C9.96544 0.191467 10.1758 1.44271 9.16505 2.64805C8.08578 3.93509 6.85904 3.72449 6.85904 3.72449C6.85904 3.72449 6.62869 2.71228 7.53348 1.52882ZM6.98845 4.60098C7.51188 4.60098 8.48334 3.88693 9.74783 3.88693C11.9244 3.88693 12.7807 5.42398 12.7807 5.42398C12.7807 5.42398 11.106 6.27373 11.106 8.33562C11.106 10.6616 13.1922 11.4632 13.1922 11.4632C13.1922 11.4632 11.7339 15.5368 9.76404 15.5368C8.8593 15.5368 8.15592 14.9318 7.20264 14.9318C6.23118 14.9318 5.26715 15.5594 4.63927 15.5594C2.84051 15.5595 0.568054 11.6952 0.568054 8.58899C0.568054 5.53291 2.49154 3.92974 4.29569 3.92974C5.46855 3.92974 6.3787 4.60098 6.98845 4.60098Z" fill="#999999"/>
</g>
<defs>
<clipPath id="clip0_6_3334">
<rect width="12.6242" height="15.3686" fill="white" transform="translate(0.568054 0.190186)"/>
</clipPath>
</defs>
</svg>
