<svg width="16" height="16" viewBox="0 0 16 16" fill="none" xmlns="http://www.w3.org/2000/svg">
<g id="google-icon 1" clip-path="url(#clip0_6_3326)">
<path id="Vector" d="M15.4001 8.11601C15.4001 7.48637 15.3478 7.0269 15.2346 6.55042H7.87695V9.39231H12.1957C12.1087 10.0986 11.6385 11.1622 10.5936 11.8769L10.579 11.972L12.9053 13.7331L13.0665 13.7488C14.5467 12.4129 15.4001 10.4474 15.4001 8.11601Z" fill="#4285F4"/>
<path id="Vector_2" d="M7.87696 15.6038C9.9928 15.6038 11.7691 14.923 13.0665 13.7489L10.5936 11.8769C9.93187 12.3279 9.04371 12.6427 7.87696 12.6427C5.80464 12.6427 4.04578 11.3068 3.4188 9.46045L3.32689 9.46808L0.907916 11.2975L0.876282 11.3834C2.16495 13.885 4.81197 15.6038 7.87696 15.6038Z" fill="#34A853"/>
<path id="Vector_3" d="M3.41874 9.4604C3.2533 8.98391 3.15756 8.47335 3.15756 7.94583C3.15756 7.41825 3.2533 6.90775 3.41003 6.43126L3.40565 6.32978L0.95636 4.47101L0.876224 4.50826C0.345103 5.54634 0.0403442 6.71206 0.0403442 7.94583C0.0403442 9.1796 0.345103 10.3453 0.876224 11.3833L3.41874 9.4604Z" fill="#FBBC05"/>
<path id="Vector_4" d="M7.87696 3.24899C9.34847 3.24899 10.3411 3.87013 10.9071 4.3892L13.1187 2.27901C11.7604 1.04525 9.9928 0.287964 7.87696 0.287964C4.81197 0.287964 2.16495 2.00672 0.876282 4.50828L3.41009 6.43128C4.04578 4.58488 5.80464 3.24899 7.87696 3.24899Z" fill="#EB4335"/>
</g>
<defs>
<clipPath id="clip0_6_3326">
<rect width="15.3686" height="15.3686" fill="white" transform="translate(0.0396118 0.287964)"/>
</clipPath>
</defs>
</svg>
