<svg width="24" height="28" viewBox="0 0 24 28" fill="none" xmlns="http://www.w3.org/2000/svg">
<g opacity="0.4">
<path fill-rule="evenodd" clip-rule="evenodd" d="M16.4109 3.75183L16.4119 4.57735C19.1665 4.8151 20.9862 6.88219 20.9891 10.0522L21 19.331C21.0039 22.7872 19.0322 24.9137 15.8718 24.9192L8.15188 24.9302C5.01119 24.9346 3.01482 22.7574 3.01087 19.2914L3.00001 10.1215C2.99606 6.93062 4.75153 4.86903 7.50617 4.59055L7.50518 3.76504C7.5042 3.28073 7.83001 2.9164 8.26444 2.9164C8.69886 2.9153 9.02468 3.27853 9.02567 3.76284L9.02666 4.53332L14.8914 4.52451L14.8904 3.75403C14.8894 3.26973 15.2152 2.9065 15.6497 2.9054C16.0742 2.9043 16.4099 3.26753 16.4109 3.75183ZM4.52146 10.4616L19.4696 10.4396V10.0544C19.4272 7.68789 18.349 6.44631 16.4138 6.2614L16.4148 7.10893C16.4148 7.58223 16.0801 7.95756 15.6556 7.95756C15.2211 7.95866 14.8943 7.58443 14.8943 7.11113L14.8933 6.21957L9.02862 6.22838L9.0296 7.11884C9.0296 7.59323 8.70477 7.96747 8.27035 7.96747C7.83592 7.96857 7.50912 7.59543 7.50912 7.12104L7.50813 6.27351C5.58284 6.48594 4.51751 7.73192 4.52048 10.1193L4.52146 10.4616ZM15.2399 15.4643V15.4764C15.2498 15.9827 15.625 16.3668 16.0801 16.3558C16.5244 16.3437 16.8789 15.9244 16.869 15.418C16.8483 14.9337 16.4918 14.5386 16.0485 14.5397C15.5943 14.5507 15.2389 14.958 15.2399 15.4643ZM16.0554 20.4064C15.6013 20.3954 15.235 19.9782 15.234 19.4719C15.2241 18.9656 15.5884 18.5462 16.0426 18.5341H16.0525C16.5165 18.5341 16.8927 18.9513 16.8927 19.4686C16.8937 19.9859 16.5185 20.4053 16.0554 20.4064ZM11.1721 15.4819C11.1919 15.9882 11.568 16.3833 12.0222 16.3613C12.4665 16.3382 12.821 15.9199 12.8012 15.4136C12.7903 14.9183 12.425 14.5331 11.9807 14.5342C11.5266 14.5562 11.1711 14.9756 11.1721 15.4819ZM12.0261 20.3568C11.572 20.3789 11.1968 19.9837 11.176 19.4774C11.176 18.9711 11.5305 18.5528 11.9847 18.5297C12.429 18.5286 12.7953 18.9138 12.8051 19.408C12.8259 19.9155 12.4704 20.3337 12.0261 20.3568ZM7.1043 15.5204C7.12405 16.0267 7.50022 16.423 7.95439 16.3999C8.39869 16.3778 8.75314 15.9585 8.73241 15.4522C8.72253 14.9568 8.35722 14.5716 7.91194 14.5727C7.45777 14.5947 7.10332 15.0141 7.1043 15.5204ZM7.95836 20.3623C7.50419 20.3855 7.12901 19.9892 7.10827 19.4829C7.10728 18.9766 7.46272 18.5572 7.91689 18.5352C8.36119 18.5341 8.72749 18.9193 8.73736 19.4147C8.7581 19.921 8.40365 20.3403 7.95836 20.3623Z" fill="#030229"/>
</g>
</svg>
