<svg width="24" height="27" viewBox="0 0 24 27" fill="none" xmlns="http://www.w3.org/2000/svg">
<g opacity="0.4">
<path fill-rule="evenodd" clip-rule="evenodd" d="M18.7071 9.81973C18.7071 11.2028 19.039 12.018 19.7695 12.9575C20.3231 13.6496 20.5 14.538 20.5 15.5018C20.5 16.4645 20.2128 17.3784 19.6373 18.1205C18.884 19.01 17.8215 19.5778 16.7372 19.6766C15.1659 19.8241 13.5937 19.9483 12.0005 19.9483C10.4063 19.9483 8.83505 19.874 7.26375 19.6766C6.17846 19.5778 5.11602 19.01 4.36367 18.1205C3.78822 17.3784 3.5 16.4645 3.5 15.5018C3.5 14.538 3.6779 13.6496 4.23049 12.9575C4.98384 12.018 5.29392 11.2028 5.29392 9.81973V9.35057C5.29392 7.49832 5.71333 6.28715 6.577 5.10149C7.86106 3.37236 9.91935 2.33533 11.9558 2.33533H12.0452C14.1254 2.33533 16.2502 3.42227 17.5125 5.22572C18.3314 6.38698 18.7071 7.54712 18.7071 9.35057V9.81973ZM9.07367 22.2247C9.07367 21.6701 9.53582 21.4161 9.96318 21.3074C10.4631 21.1909 13.5093 21.1909 14.0092 21.3074C14.4365 21.4161 14.8987 21.6701 14.8987 22.2247C14.8738 22.7526 14.5926 23.2207 14.204 23.5179C13.7001 23.9505 13.1087 24.2244 12.4906 24.3231C12.1487 24.3719 11.8128 24.373 11.4828 24.3231C10.8636 24.2244 10.2723 23.9505 9.76937 23.5168C9.37978 23.2207 9.09852 22.7526 9.07367 22.2247Z" fill="#030229"/>
</g>
</svg>
