<svg width="24" height="27" viewBox="0 0 24 27" fill="none" xmlns="http://www.w3.org/2000/svg">
<g opacity="0.4">
<path fill-rule="evenodd" clip-rule="evenodd" d="M7.81 2.47571H16.191C19.28 2.47571 21 4.43592 21 7.79471V19.1705C21 22.5844 19.28 24.5005 16.191 24.5005H7.81C4.77 24.5005 3 22.5844 3 19.1705V7.79471C3 4.43592 4.77 2.47571 7.81 2.47571ZM8.07999 7.60749V7.59648H11.069C11.5 7.59648 11.85 7.98192 11.85 8.45435C11.85 8.94 11.5 9.32543 11.069 9.32543H8.07999C7.64899 9.32543 7.29999 8.94 7.29999 8.46646C7.29999 7.99293 7.64899 7.60749 8.07999 7.60749ZM8.07999 14.303H15.92C16.35 14.303 16.7 13.9176 16.7 13.4441C16.7 12.9705 16.35 12.584 15.92 12.584H8.07999C7.64899 12.584 7.29999 12.9705 7.29999 13.4441C7.29999 13.9176 7.64899 14.303 8.07999 14.303ZM8.07999 19.3357H15.92C16.319 19.2917 16.62 18.9161 16.62 18.4767C16.62 18.0252 16.319 17.6508 15.92 17.6068H8.07999C7.77999 17.5737 7.48999 17.7279 7.32999 18.0142C7.16999 18.2895 7.16999 18.6529 7.32999 18.9393C7.48999 19.2146 7.77999 19.3798 8.07999 19.3357Z" fill="#030229"/>
</g>
</svg>
